<svg width="64" height="67" viewBox="0 0 64 67" fill="none" xmlns="http://www.w3.org/2000/svg">
<g clip-path="url(#clip0_385_28)">
<path d="M32.0092 66.6665C49.5668 66.6665 63.8 51.8402 63.8 33.551C63.8 15.2618 49.5668 0.435547 32.0092 0.435547C14.4515 0.435547 0.218262 15.2618 0.218262 33.551C0.218262 51.8402 14.4515 66.6665 32.0092 66.6665Z" fill="#00EAD9"/>
<path d="M32.0093 63.4781C47.8764 63.4781 60.7393 50.0793 60.7393 33.5511C60.7393 17.0228 47.8764 3.62402 32.0093 3.62402C16.1422 3.62402 3.2793 17.0228 3.2793 33.5511C3.2793 50.0793 16.1422 63.4781 32.0093 63.4781Z" fill="url(#paint0_linear_385_28)"/>
<path d="M32.3913 58.9955C46.1227 58.9955 57.2542 47.4002 57.2542 33.0966C57.2542 18.7931 46.1227 7.19775 32.3913 7.19775C18.6598 7.19775 7.52832 18.7931 7.52832 33.0966C7.52832 47.4002 18.6598 58.9955 32.3913 58.9955Z" fill="#006262"/>
<path d="M32.391 48.0978C36.957 48.0978 40.6584 44.2422 40.6584 39.4859C40.6584 34.7297 36.957 30.874 32.391 30.874C27.825 30.874 24.1235 34.7297 24.1235 39.4859C24.1235 44.2422 27.825 48.0978 32.391 48.0978Z" fill="#006262"/>
<path d="M36.155 46.147H27.8391C27.5847 46.147 27.3784 46.3618 27.3784 46.6268V47.0246C27.3784 47.2896 27.5847 47.5044 27.8391 47.5044H36.155C36.4094 47.5044 36.6157 47.2896 36.6157 47.0246V46.6268C36.6157 46.3618 36.4094 46.147 36.155 46.147Z" fill="white"/>
<path d="M35.9369 48.2559H28.0695C27.8151 48.2559 27.6089 48.4707 27.6089 48.7357V49.1335C27.6089 49.3985 27.8151 49.6133 28.0695 49.6133H35.9369C36.1914 49.6133 36.3976 49.3985 36.3976 49.1335V48.7357C36.3976 48.4707 36.1914 48.2559 35.9369 48.2559Z" fill="white"/>
<path d="M35.1308 50.4468H28.8756C28.6547 50.4468 28.4756 50.6333 28.4756 50.8635V51.217C28.4756 51.4472 28.6547 51.6338 28.8756 51.6338H35.1308C35.3517 51.6338 35.5308 51.4472 35.5308 51.217V50.8635C35.5308 50.6333 35.3517 50.4468 35.1308 50.4468Z" fill="white"/>
<path d="M34.2095 52.5049H29.7909C29.6068 52.5049 29.4575 52.6603 29.4575 52.8521V53.1362C29.4575 53.328 29.6068 53.4835 29.7909 53.4835H34.2095C34.3936 53.4835 34.5429 53.328 34.5429 53.1362V52.8521C34.5429 52.6603 34.3936 52.5049 34.2095 52.5049Z" fill="white"/>
<path d="M27.7572 44.9329C27.7557 43.4955 27.4537 42.0757 26.8723 40.7721C26.1207 39.1306 25.3388 38.7076 24.0417 36.5735C23.3021 35.4954 22.7219 34.3078 22.3203 33.0505C21.2354 29.136 23.2235 25.5119 23.5993 24.8426C24.4789 23.2176 25.7733 21.878 27.339 20.9723C28.7311 20.1885 30.2903 19.7825 31.8728 19.7917C33.4115 19.8132 34.9234 20.2134 36.2853 20.9597C37.4843 21.6241 38.5424 22.5335 39.3963 23.6335C40.2503 24.7335 40.8826 26.0015 41.2555 27.3618C41.7582 29.0809 41.8001 30.9105 41.3767 32.6527C40.9626 34.1286 40.2748 35.5057 39.3523 36.7061C38.8916 37.3375 38.7098 37.4638 38.2491 38.1709C37.6176 39.1492 37.1141 40.2108 36.752 41.3278C36.3749 42.4903 36.1526 43.7012 36.0914 44.9266L27.7572 44.9329Z" fill="white"/>
<path fill-rule="evenodd" clip-rule="evenodd" d="M32.3789 9.80518C32.9312 9.80518 33.3789 10.2715 33.3789 10.8468V16.7375C33.3789 17.3128 32.9312 17.7792 32.3789 17.7792C31.8266 17.7792 31.3789 17.3128 31.3789 16.7375V10.8468C31.3789 10.2715 31.8266 9.80518 32.3789 9.80518Z" fill="white"/>
<path fill-rule="evenodd" clip-rule="evenodd" d="M43.5015 28.5632C43.5015 27.9879 43.9492 27.5215 44.5015 27.5215H50.4596C51.0119 27.5215 51.4596 27.9879 51.4596 28.5632C51.4596 29.1384 51.0119 29.6048 50.4596 29.6048H44.5015C43.9492 29.6048 43.5015 29.1384 43.5015 28.5632Z" fill="white"/>
<path fill-rule="evenodd" clip-rule="evenodd" d="M12.8926 28.5632C12.8926 27.9879 13.3403 27.5215 13.8926 27.5215H19.8507C20.403 27.5215 20.8507 27.9879 20.8507 28.5632C20.8507 29.1384 20.403 29.6048 19.8507 29.6048H13.8926C13.3403 29.6048 12.8926 29.1384 12.8926 28.5632Z" fill="white"/>
<path fill-rule="evenodd" clip-rule="evenodd" d="M47.4387 15.1674C47.8294 15.5739 47.8299 16.2335 47.4396 16.6405L42.9786 21.2937C42.5883 21.7008 41.9552 21.7013 41.5644 21.2947C41.1736 20.8882 41.1732 20.2287 41.5634 19.8216L46.0244 15.1684C46.4147 14.7613 47.0479 14.7609 47.4387 15.1674Z" fill="white"/>
<path fill-rule="evenodd" clip-rule="evenodd" d="M17.6464 15.0668C18.0369 14.66 18.6701 14.66 19.0606 15.0668L23.7156 19.9158C24.1061 20.3225 24.1061 20.9821 23.7156 21.3889C23.3251 21.7957 22.6919 21.7957 22.3014 21.3889L17.6464 16.54C17.2559 16.1332 17.2559 15.4736 17.6464 15.0668Z" fill="white"/>
</g>
<defs>
<linearGradient id="paint0_linear_385_28" x1="32.0093" y1="2.56963" x2="32.0093" y2="71.1493" gradientUnits="userSpaceOnUse">
<stop offset="0.01" stop-color="#FFEE00"/>
<stop offset="1" stop-color="#F3A817"/>
</linearGradient>
<clipPath id="clip0_385_28">
<rect width="64" height="66.6666" fill="white"/>
</clipPath>
</defs>
</svg>
